<svg width="2048" height="2048" viewBox="0 0 2048 2048" fill="none" xmlns="http://www.w3.org/2000/svg">
<rect width="2048" height="2048" rx="150" fill="white"/>
<path d="M1522 449V1599H1340.35C1290.96 1599 1244.74 1574.69 1216.75 1534L847.255 996.714C846.431 995.516 845.07 994.801 843.617 994.801V994.801C841.178 994.801 839.201 996.778 839.201 999.216V1591C839.201 1595.42 835.619 1599 831.201 1599H527V449H712.58C762.278 449 808.75 473.616 836.671 514.731L1199.07 1048.38C1200.16 1049.99 1201.98 1050.95 1203.93 1050.95V1050.95C1207.17 1050.95 1209.8 1048.32 1209.8 1045.08V457C1209.8 452.582 1213.38 449 1217.8 449H1522Z" fill="black"/>
</svg>
